<svg xmlns="http://www.w3.org/2000/svg" xmlns:xlink="http://www.w3.org/1999/xlink" viewBox="0 0 32 32"><defs><polygon id="a" points="0 .662 32 .662 32 26.667 0 26.667"/></defs><g fill="none" fill-rule="evenodd" transform="translate(0 2)"><g transform="translate(0 .005)"><mask id="b" fill="white"><use xlink:href="#a"/></mask><path fill="#00A0E3" d="M27.82 1.75c1.15.24 2.3.85 2.92 1.94 1 2.5 1.12 5.34 1.25 8.16.08 3.75-.2 7.46-.97 10.9a3.79 3.79 0 0 1-2.34 2.56 61.08 61.08 0 0 1-23.54.41c-1.45-.27-2.98-.66-3.85-2.05-.71-1.3-.8-2.82-1-4.33-.46-4.84-.45-10.2.65-14.78a4.11 4.11 0 0 1 2.39-2.61C7.01.93 11.03.79 15.06.66c4.4.02 8.7.27 12.76 1.09" mask="url(#b)"/></g><path fill="#FFFFFF" d="M29.76 3.33c.55.61.92 1.32.96 2.13l-.1 16.08H20.6l.9-3c.34-.18.81-.13 1.22-.25l.36-.8c1.04.97 1.93 2.29 3.19 2.75.42.06.73-.12 1-.4l2.04-2.3c.05-.18.1-.33-.02-.48-.2-.3-.6-.14-.88-.11l-1.59.83-.67-.6c.38-.25.78-.48 1.06-.88l-2.08-5.15 3.29.64c.2-.02.4-.17.48-.34.03-.36-.32-.64-.6-.79-1.25-.72-2.52-1.38-3.72-2.28h-.15c-.36.55-.6 1.18-.97 1.72-.35-.27-.55-.78-.9-1.11-.35.25-.66.57-1.01.87h-.05c-.17-.4-.24-.83-.5-1.19l-.2.1-3.71 4.26c-.03.2.02.5.27.53l.48-.12 2.86-1.85-2.14 9.95c-.68.06-1.4-.02-2.14 0l.03-9.85a4.73 4.73 0 0 0 1.18-4.41 4.35 4.35 0 0 0-1.41-2.33 4.58 4.58 0 0 0-.35 6.74l-.05 9.85h-1.68l-2.62-9.8v-.05l2.83 1.59c.25.03.53 0 .6-.27l-.1-.35c-1.26-1.45-2.58-2.85-3.87-4.27-.3 0-.5.35-.78.42-.71.22-1.56.11-2.14-.3l-.45.12-4.05 2.32c-.17.18-.4.38-.28.65.3.33.83.14 1.18.07l2.52-.58-2.49 4.93a6.72 6.72 0 0 0 1.7 1.67c-.24.25-.47.55-.82.6l-.3-.03c-.68-.33-1.14-1.22-2-1.08-.25.13-.28.48-.18.7a27.4 27.4 0 0 0 2.33 2.72c.33.23.7 0 1.03-.14.84-.5 1.62-1.14 2.43-1.71.63.1 1.46.09 2.12-.08l1.4 2.87H1.26L1.36 5a3.89 3.89 0 0 1 2.32-2.7l1.18-.18 20.74.01c1.54-.03 3.12-.01 4.16 1.2"/><path fill="#00A0E3" d="M23.5 4.27c.93 1.2-.18 2.47-.15 3.77-.4.4-1.1.47-1.63.24.02-.25-.07-.56-.35-.66a1.2 1.2 0 0 1-.87-.71c-.35-.79.34-1.56 0-2.42.05-.4.53-.4.8-.6.71-.18 1.67-.27 2.2.38m-12.7.52c.14.36.41.76.2 1.16-.67.07-.05.7-.3 1.08-.04.4-.27.8-.65 1.02a1.8 1.8 0 0 1-1.15.07c-.35-.1-.73-.46-.9-.82-.15.08-.33.2-.53.12-.5-.73-.8-1.89-.27-2.69s1.5-1.06 2.42-.85c.45.2.9.43 1.17.91"/><path fill="#FFFFFF" d="M15.88 10.83a4.25 4.25 0 0 1 .03-4.75l-.03 4.75m1.15-1.2c-.13.4-.29.8-.57 1.16v-4.7c.7.98.93 2.32.57 3.55"/><path fill="#00A0E3" d="M18.35 17.87c-.39.5-.92.74-1.45.97-.64-1.04-.3-2.65.22-3.67a4.02 4.02 0 0 1 2.13-1.84c.69 1.44.17 3.34-.9 4.54m-2.66-1.13c.05.73.09 1.5-.3 2.1-1.57-.54-2.54-2.23-2.64-3.82-.05-.63.08-1.18.32-1.7 1.47.41 2.39 2 2.62 3.42"/><path fill="#FFFFFF" d="M17.19 18.1a3.87 3.87 0 0 1 1.72-4.02 3.87 3.87 0 0 1-1.72 4.03m-2.09 0a3.97 3.97 0 0 1-1.74-4.04c1.45.82 2.01 2.44 1.74 4.04m15.5 4.1a3.64 3.64 0 0 1-2.57 2.83l-1.06.11-22.55-.06a3.6 3.6 0 0 1-2.65-1.66 2.9 2.9 0 0 1-.49-1.23H12.5c.3.51.61 1.17 1.31 1.28.28 0 .46-.25.56-.45.08-.32-.02-.55-.09-.83h1.53l.06 1.4c.13.15.25.18.4.08l.13-.12.02-1.36h2.03c-.13.4-.08.8.17 1.1.17.28.55.26.8.16.5-.3.79-.76 1-1.26H30.6"/></g></svg>